<svg xmlns="http://www.w3.org/2000/svg" width="589.415" height="172.049" viewBox="0 0 589.415 172.049"><path d="M-166.646-2.338l-1.477,1.6-.738.862-1.477,1.354-3.446,3.815-3.692,3.077-1.6,1.846-2.215,2.092-.862.862-1.969,1.846-2.092,1.846-1.846,1.723-.985.738-3.815,3.815-4.185,3.569-1.108.862c-4.062,3.2-4.308,3.569-9.108,6.892l-6.154,3.938-1.231.985-.985.615-3.569,2.092-.862.492-2.338,1.354-.862.123-3.077,1.969-1.723.862-4.431,2.462-4.185,2.092-1.354.738-1.108.492-3.938,2.585-3.323,1.846-8.985,3.938-.246.123-5.662,1.6a55,55,0,0,1-5.785.492l-.492-.123h-.862c-1.6-.246-3.2-.738-4.677-.985l-2.092-.615a14.186,14.186,0,0,1-7.138-6.031,17.256,17.256,0,0,1-2.338-4.8l-.123-.369a5.33,5.33,0,0,1-.123-.615v-.738l-.123-.862-.123-1.846V43.569c.123-1.108.492-2.092.615-3.077l.615-1.723a3.594,3.594,0,0,1,.246-1.108l.738-1.969.738-1.6.615-.862,1.108-2.338,1.846-2.708.123-.615,2.215-2.954c.492-.492.985-1.354,1.477-1.969l1.969-2.338,2.215-2.462.492-.369,3.692-3.446.492-.492,3.077-2.338,1.969-2.215a100.965,100.965,0,0,1,9.108-7.138h.246l.862-.369,2.585-1.723.615-.123.738-.738.738-.123,2.831-1.477v-.123l1.354-.862.862-.615a4.686,4.686,0,0,1,.738-.615l2.585-1.846c7.138-3.938,14.277-7.508,21.415-10.954l1.477-.492,1.108-.615a71.822,71.822,0,0,1,8.738-3.446l1.108-.246.615-.246c.985-.246,2.092-.738,2.831-.985l.862-.246.985-.246,6.031-1.723,1.723-.246,1.723-.738,2.092-.615,5.046-1.354.738-.123,2.585-.615,5.292-1.6c1.846-.492,3.569-.862,5.046-1.354l2.954-.738.492-.123,2.954-.615,5.292-.985,4.431-.862,4.185-.738,1.969-.369,1.231-.369,1.108-.738.738-.985L-144-40.369h-1.846l-2.215.369h-1.108l-.369.123h-.615c-.738.123-1.477.492-2.215.615a2.71,2.71,0,0,0-.985.123h-.492l-4.185.615-.738.246a3.8,3.8,0,0,1-.985.246l-1.231.123h-.615l-1.108.246-5.785.985-.985.369-2.585.492a9.761,9.761,0,0,0-1.108.492l-3.815,1.108-2.215.492-3.077.862-2.708.985-.492.123-1.477.246-2.215.615-3.323,1.108-1.354.369-4.062,1.231-.369.123-1.108.123-1.6.615-1.231.492-.492.123a1.989,1.989,0,0,1-.615.246l-1.354.246-2.954.862-.369.369c-3.815,1.354-7.877,2.831-11.446,4.431h-.123l-.615.123-.492.369-.246.123-.369.246-.738.246-2.585.985-5.046,2.338-1.108.738-.738.492-1.723.862c-4.185,2.215-7.385,4.062-11.077,6.277l-2.708,1.723-3.323,1.477-1.231,1.231L-257.231.246l-1.108.738-1.723,1.231-.615.862-.492.369c-3.692,2.708-7.385,5.538-10.831,8.492l-.615.615-2.338,2.215-.738.492-.738.985a61.9,61.9,0,0,0-7.138,9.231l-1.6,2.215c-.615.985-1.354,1.969-2.338,3.323l-1.969,3.077-.492,1.231a34.646,34.646,0,0,0-2.338,5.046,17.837,17.837,0,0,0-.369,3.938,20.371,20.371,0,0,0,.369,3.938l.123,2.338.492,2.092a30.141,30.141,0,0,0,2.462,3.938l.123.246a46.924,46.924,0,0,0,2.954,3.938l.738,1.108,1.723,1.846,1.477,1.231,1.477.862a2.552,2.552,0,0,1,.738.246l.246.246,1.477.615.738.246a21.239,21.239,0,0,0,2.954.615,5.519,5.519,0,0,1,1.354.123,32.82,32.82,0,0,1,4.923,0,33.316,33.316,0,0,0,7.754-.246l1.477-.123,7.631-1.969,1.354-.246,1.108-.492.492-.492.985-.615.985-.369.738-.369s.246-.369.369-.369h.123l.615-.246,3.815-1.477.123-.123,1.846-.738,4.554-2.338,2.585-.985,2.585-1.969c.492-.369,1.969-1.108,3.446-1.969a27.36,27.36,0,0,1,3.323-2.338l.738-.492,2.092-1.108,2.462-1.477,4.308-2.831a19.006,19.006,0,0,1,2.708-1.723l1.846-.862,1.723-1.477c1.969-1.354,3.938-2.708,5.908-4.308l5.662-4.923.738-.492.862-.492,2.831-2.215.985-.985.492-.369,3.077-2.338,1.108-1.108a9.4,9.4,0,0,1,1.108-1.108l6.769-7.631,7.262-7.877L-168,5.169l1.231-1.477,1.354-1.354.369-.492,2.462-2.708a87.516,87.516,0,0,0,6.4-8.123c1.108-1.477,2.215-2.954,3.569-4.554,0,0,.862-.985,1.108-1.231l.985-.985,4.062-5.169,1.723-2.462.615-.615,2.338-2.585,1.846-2.831.985-1.477a22.616,22.616,0,0,0,1.477-2.215l3.323-4.8,1.969-2.954.615-.985,1.108-1.477,1.723-2.954L-127.631-48a.608.608,0,0,1,.123-.369l2.092-3.2,1.723-2.954,1.108-2.092.615-.985a15.335,15.335,0,0,1,1.477-2.831l1.354-2.585.862-2.338,2.462-6.154.369-.985,1.354-2.954a3.8,3.8,0,0,1,.246-.985A35.883,35.883,0,0,1-112-80.985l.862-3.938a38.956,38.956,0,0,0,1.969-4.431,4.226,4.226,0,0,0-.862-3.815s-1.231-.738-1.477-.862l-.985-.123a3.79,3.79,0,0,0-2.338,1.354l-2.215,3.323-.246.862c0,.492-.246.985-.246,1.477v-.123l-.615,3.569c0,.123-.123.492-.123.738a6.177,6.177,0,0,0-.246,1.477s-.123.738-.246,1.231l-1.969,6.154-1.108,2.215-.492,1.477c-.246.615-.738,1.354-.985,2.092l-1.846,4.185-.985,1.6-.369.492-.738,1.108-1.723,4.554a63.807,63.807,0,0,1-3.323,6.523,12.328,12.328,0,0,0-1.723,3.323c-.123.246-.123.123-.123.123-.369.615-1.108,1.723-1.477,2.462l-.985,1.477-.369.985c-.246.492-.738.985-.985,1.477l-1.846,2.708-1.846,2.462-1.231,1.846-1.846,2.462-1.108,1.723-.862,1.354-.985,1.354c-.615.985-1.477,1.969-2.092,2.954l-.985,1.354-1.477,1.723-.492.738-.615.615-1.723,2.338-.738.985-1.354,1.723-.369.492-.862.862-.615.862-1.354,1.969c-.123.246-.492.492-.615.738L-163.2-6.523-165.908-3.2Zm88.123-100.923-.862-.246h-.492l-2.462-.123-.862.123-1.354-.123-.492.123-2.215-.123-3.815-.123-.985-.123-.369-.123h-1.108l-2.338.492h-4.431l-1.969-.246-1.723.123c-2.831,0-5.662.123-8.492.246l-7.631.492h-5.662l-.615.246-1.108-.246c-.985.123-2.092.492-3.077.615h-1.723l-1.6.246-3.323.492-2.462.615-4.554.492c-6.031.738-12.308,1.723-18.215,2.708h-2.215l-.862.492c-6.154.985-13.908,2.708-19.815,4.062l-.492-.123-1.969.738-2.092.123-1.723.492-1.477.123-2.708.492-.492.369-2.092.369-1.231.615-5.046,1.231h-1.108l-1.231.492h-.369l-3.077.862-1.846.246-1.723.862-2.462.492-1.477.369-2.585.615L-224-83.2l-3.2.862-2.954,1.231-2.462.615-3.2.985-1.354.369-3.323.862-2.954.862-5.415,2.585-1.723,1.354-2.092,1.6-1.231,1.354-.369,1.354.123,1.723,1.108,1.231.985.862,1.354.246h1.6l1.969-.246,1.231-.492,4.431-2.954.738-.492L-236.431-72l2.462-.985c.246-.123.123-.246.369-.369l3.692-1.477,5.415-1.846.985-.369,3.323-.985,1.723-.985c1.231-.492,2.708-.862,3.938-1.354l4.677-1.969h1.354l1.108-.369,1.231-.369,3.2-.738a7.059,7.059,0,0,0,.862-.492l1.108-.246.738-.246,1.6-.369,1.231-.492c.123,0,.369-.123.492-.123l3.815-.738.985-.369a3.436,3.436,0,0,1,.862-.369l.615-.246,2.462-.123,1.846-.492,1.231-.246.738-.492,1.6-.246,1.477.369,1.723-.615,2.462-.369a3.263,3.263,0,0,0,.738-.615l.492.123,5.908-.738,2.954-.738,4.185-.862,1.6-.492,2.338-.369.738.123,2.092-.123.738-.492,9.108-1.846c7.631-.985,15.508-1.846,23.262-2.462l3.938-.369.615.123.492-.123h1.108c.369,0,.862-.123,1.354-.123l4.923-.369,4.8-.123,1.231.123h1.969l2.708.123.985-.123,2.338.123,1.969-.123,2.954.123h4.185l1.6.123.862-.123,2.462.123.985.123.862.246,1.108-.246h1.231l3.446.123.492.123,1.969-.123h1.108a183.115,183.115,0,0,1,22.4,3.446c.615.123,1.354.492,1.969.615l1.477.492,2.462.985c.246,0,.492.123.862.123l2.215.862c.246,0,.985.123,1.354.123a25.061,25.061,0,0,0,2.708,1.108l.862.369,1.477.985c.369,0,.985.123,1.354.123l1.477.246,4.431,1.723c.123,0,.246.246.369.246l1.477.615.738.246h.123l.615.369.862.246,1.6-.123.492-.738-.246-1.231c-.123,0-1.231-1.108-1.6-1.231l-.246-.123-4.677-1.723-1.108-.738-1.108-.369c-.123,0-.615-.123-.862-.123l-1.723-.615-3.077-1.354L-41.6-96.862a101.229,101.229,0,0,0-9.723-2.954l-1.354-.615-1.723-.123c-.246,0-.492-.123-.738-.123l-4.8-.862a156.615,156.615,0,0,0-15.631-1.477,18.178,18.178,0,0,1-2.585-.123ZM-88-20.431l.123-2.462-.615-1.477-.492-1.108-1.969-2.092-.985-.615-.246-.123L-92.8-28.8l.862-.369,3.446-.492,2.462-.369,2.338.123.492-.369.985-.246c3.815-.615,7.631-1.108,13.046-1.477a5.072,5.072,0,0,0,1.477-.123,6.236,6.236,0,0,1,1.6-.246l1.477-.123h1.846a37.9,37.9,0,0,1,7.877.615l1.846.492.862.615.985.492v.369l-.492,1.6-.862,1.477-.492.985-.246.862-.123.615.123,1.477.738.123,1.477-.369.738-.738a5.6,5.6,0,0,0,1.108-1.477l1.108-1.723.615-1.231.246-1.231-.123-1.477L-47.877-32l-1.6-1.6a.93.93,0,0,1-.492-.123c-.246-.246-.246-.492-1.354-.738h.123l-1.108-.615H-52.8l-.246-.123a25.006,25.006,0,0,0-3.815-.985l-.615-.123-.985-.123h-.369l-.862-.246-1.231.123-1.354-.123h-.862l-.738.123h-.738l-.492-.123-.738.246c-.369,0-.738.123-1.108.123h-1.231a5.519,5.519,0,0,1-1.354.123l-1.6-.123-.985.123h-2.462l-1.231.123-.985.123-1.969.615-1.846.123-1.477.369-2.954.492a5.532,5.532,0,0,0-1.477-.738l-.615-.246h-.738a10.688,10.688,0,0,0-2.831.123l-.985.123-1.108.123-.985.492h-.123l-.985.492-1.477.985a6,6,0,0,1-.862.369l-1.723.246-.492-.123-2.338.369-1.846-.123h-1.846a33.143,33.143,0,0,0-4.923-.369l-2.092-.369-.862-.369-1.6.123-1.477.246-1.6.615-1.231,2.092-.123,1.477.985,1.231.985.615,1.477.369,3.077-.123a22.271,22.271,0,0,0,3.077-.246c.369,0,.615-.123.862-.123h1.846l-.615.369-.615.369-2.462,1.723-1.6.985-1.354.862-1.231.862h-.369l-.862.862-2.954,2.215-.615.492-1.354,1.108a3.9,3.9,0,0,0-.738.615l-.123.123-2.708,1.969-.492.492-1.231.985-1.477,1.354-4.431,4.431-1.108,1.6-.862,1.477-.492,2.462.123,1.108.369.985c.246.862,1.846,2.215,3.077,2.831l.246.123a10.469,10.469,0,0,0,2.708.862,17.283,17.283,0,0,0,2.831.246l2.338.123h.862l1.723-.246.738-.123.369-.369a34.236,34.236,0,0,0,4.8-1.723l.369-.123c.123,0,.369-.246.492-.369l.492-.123.862-.246,1.354-.369.369-.123,1.108-.492a3.367,3.367,0,0,0,.492-.615l.738-.123.862-.862,1.108-.738.369-.246.738-.246,1.6-1.108.246-.123a46.519,46.519,0,0,0,7.631-5.415l1.231-.985,1.108-1.231,1.108-1.108,1.354-.985,1.231-1.723a14.926,14.926,0,0,0,.615-1.723A14.578,14.578,0,0,0-88-20.185Zm-8,4.308-.862.862a1.24,1.24,0,0,0-.123.369l-1.108,1.108-1.231,1.108-.369.492c-.985.862-1.969,1.846-2.954,2.585l-.615.492-3.446,2.338h-.862l-2.338,1.846-2.215,1.108-.246.123c-1.6.615-3.446,1.354-5.415,1.969C-121.723-.369-122.585,0-126.4-.246h-.246l-.615-.369L-128-1.354v-.738l.123-.369.123-.985.246-.615a.608.608,0,0,1,.123-.369,15.584,15.584,0,0,1,1.6-2.708l.985-1.108,1.108-1.477a9.993,9.993,0,0,1,1.108-1.231l1.6-1.231.862-.738,1.354-.862,1.354-1.231,1.6-1.108.738-.615c.862-.492,1.723-1.231,2.585-1.723l.615-.369,1.477-.985,3.446-2.092a76.938,76.938,0,0,0,7.138-4.308l.862-.615a.608.608,0,0,0,.369.123l1.477.862.738.246.738.246.985.615.862.615.123.123a11.384,11.384,0,0,0,.615,1.231c0,.492-.123.738-.123,1.108l-.492,1.354v.738a16.126,16.126,0,0,1-1.969,3.2ZM-33.231-3.938l.492-.369,1.354-.492.492-.246.738-.738c2.092-1.231,4.308-2.831,6.523-4.308l.615-.246.862-.246,1.6-1.354,1.108-.738,3.815-2.338L-13.662-16l.738-.615.738-.246,1.354-1.477-.123-1.108-.985-.862-1.354-.123-.738.615c-1.108.615-1.846,1.231-2.708,1.723l-.738.369-.492.246-.862.492-1.354.738-.492.492-.862.369-.615.615H-22.4l-.862.615-.246.123-1.108.615-2.954,1.477-.615.492-1.969.985-.492.492-1.108.738-.862.492-1.6.985-.738.492-.738.123-.985.615-1.6.985-1.969,1.108-.985.492-4.062,1.969-.985.246-1.969.738L-51.2-.246l-.492.369-1.969,1.108a1.771,1.771,0,0,0-.369.246l-1.108.246-1.108.369c-.985.123-1.723.492-2.585.615h-.615l-.738-.123-.738.123-.492.123-.862-.123h-.862V2.338l.246-1.477V.369l.615-2.462,1.108-2.462.246-.615.738-2.092a2.2,2.2,0,0,1,.615-.862l.615-.615,1.354-2.338.615-.985.862-1.231,1.723-1.969,1.846-2.092a4.046,4.046,0,0,0,.369-.738l1.231-.738a2.165,2.165,0,0,1,.123-.738l.862-.862.862-1.231,1.231-1.723,2.338-2.338.369-.862,1.846-1.6,1.723-1.354,1.477-1.6,1.108-1.231.246-1.723v-.862a4.5,4.5,0,0,0-2.831-1.6,7.023,7.023,0,0,0-4.431,1.723L-47.385-33.6l-1.231,1.723-1.6,2.462-.615.492-.492.985-.615.862-1.6,1.969-.615,1.477-1.969,2.708L-57.6-19.2l-.369.615-1.108,1.6a18,18,0,0,0-1.108,1.6l-.369.369-.492.862-.369.862c-.246.492-.738.985-.985,1.477l-.615.985-1.108.985a1.24,1.24,0,0,0-.123.369l-.862.985-.985,1.723c0,.246-.246.615-.246.738l-.985,2.462-.862,2.462v.738A9.3,9.3,0,0,0-68.554,3.2l-.123.985.615.738a5.635,5.635,0,0,0,3.077,2.338l3.323.615,1.477-.369,1.723.123,1.723-.246,1.723-.862,1.969-.369.862-.246.862-.369,1.723-.985a2.08,2.08,0,0,0,.738-.369l.985-.369,1.969-1.231.492-.369,2.338-1.108.615-.246,1.231-.738c.492-.123,1.108-.492,1.6-.615l.369-.246.862-.615.985-.246,1.723-.738,1.477-1.108ZM-22.4-64.492c-.492-.985-1.354-1.846-3.446-2.092l-.985.246-1.477.738-1.846,1.846-.738.615-.862.615-1.108,1.231-.492.615-.985,1.354-1.723,2.585-.492.862-1.723,4.062-.123.492.246,1.6a4.7,4.7,0,0,0,2.338-.369l.862-.615,1.969-1.6,2.215-1.969c.492-.492,1.477-1.108,2.092-1.6l.492-.369,1.477-1.108c2.708-1.477,3.815-2.831,4.431-4.185a6.568,6.568,0,0,0,0-2.708Zm2.708,52.308-1.846,2.831-.246.492-1.108,1.477-.738,1.354-2.585,3.446-.862,1.354a5.923,5.923,0,0,0-1.6,4.554,3.317,3.317,0,0,0,2.338,2.585l1.108-.123,2.338-1.6.738-.738,3.692-3.815,2.215-2.338,1.477-1.108,1.6-1.846.369-.369.615-.492.985-.615.246-.123,1.723-1.6.369-.369.985-.615,1.108-.738c.492-.369,1.477-1.477,1.969-1.969l1.477-.985,1.231-1.108,1.231-1.231.615-.246,1.723-1.231,1.108-.492,1.231-.615.862-.492a.852.852,0,0,0,.492-.369,5.234,5.234,0,0,1,1.354-.246c.738.246.985,1.231.862,2.462,0,.246-.123.738-.123.985L6.031-11.815,5.292-9.231,4.8-7.754v1.477a11.966,11.966,0,0,0,.123,2.215A5.35,5.35,0,0,0,7.508-.615L8-.369h.123a9.126,9.126,0,0,0,3.692.985l1.231.123.738-.246,1.477.123L16.615.492,17.846.123l1.108-.246a3.535,3.535,0,0,0,1.477-.246L20.8-.492l.492-.123.492-.246.862-.123,1.477-.246,1.354-.246,1.108-.492a10.172,10.172,0,0,1,1.6-.862l1.723-.492,1.723-.985a18,18,0,0,1,1.6-1.108h.246l5.415-2.708,1.969-1.108c1.723-.862,3.077-1.477,4.062-2.092l1.477-.738,1.846-1.231,1.231-.492,1.846-1.354A24.962,24.962,0,0,0,55.262-17.6l2.215-1.477,1.231-.862.246-1.354-.369-.615-.738-.615H56.492l-1.6,1.108-.615.246-1.6.985-.738.492-4.185,2.462-3.446,1.6-1.108.615-.985.862-.862.615-2.708,1.354-.615.123-1.6,1.108L32.246-8.985l-2.092.738h-.369L26.092-6.769l-1.846.738-.985.123c-.369.123-1.108.492-1.6.615l-.862.123-2.215.985a19.927,19.927,0,0,1-5.169.369l-1.108-.492c-.123,0,0,0-.123-.123l-.492-.862-.123-.615a6.318,6.318,0,0,1-.492-1.231l-.123-.615-.246-.985c0-.369.123-.615.123-.985l.738-3.077v-1.231l.123-.862.246-1.477.123-1.231v-1.108L11.692-20.8l-1.108-1.6L8.862-23.631l-2.708-.123H5.662c-.862-.123-2.954.738-3.938,1.108-.369.123-.738.492-1.108.615l-1.969,1.108-.492.123-3.2,2.092-.369.246-1.846,1.354-.492.492-1.969,1.354-.246.492-.369.492-3.2,2.954-1.6,1.477-.246.123L-14.4-11.2a21.016,21.016,0,0,0,.862-2.215l1.969-2.831c.615-.985,1.6-2.585,2.338-3.569l.738-.738.246-.862,1.723-2.215.615-1.231.615-1.354,1.231-1.846,2.338-5.046A25.4,25.4,0,0,0,.246-37.662c.862-3.077-.369-5.046-3.569-5.046a3.893,3.893,0,0,0-3.323,2.215,6.83,6.83,0,0,0-.246,2.338,9.862,9.862,0,0,1-.123,2.585,37.153,37.153,0,0,1-1.108,3.692l-2.338,4.431L-12.185-24l-.369.492-.615.985L-16-17.846l-1.354,1.969-.862,1.477-.862,1.477a.43.43,0,0,1-.123.246Zm152.615,9.6c0,.123-.123.492-.123.615a3.125,3.125,0,0,0,.246,2.338l.123.492,1.477,1.6c.246,0,.738.123.862.123h.246a9.522,9.522,0,0,0,2.585-.123c.369,0,.738-.123,1.231-.123H140.8l1.6-.369,1.477-.246a2.094,2.094,0,0,0,.862-.123l.862-.123,1.354-.123,1.6-.492.492-.123L150.4.615l4.185-1.354,1.6-.369,1.231-.369,1.846-.123.369-.123.862-.123,1.231-1.108.123-.985-.369-.862-1.723-.246-.862.123a1.11,1.11,0,0,0-.615.123l-1.108.123-1.6.123-.862.246-2.954.492-.738-.123-1.723.492-.615.123c-.246,0-.615.123-.862.123a19.39,19.39,0,0,1-3.446.369h-.862l-.738-.123h-.985c-.369,0-.738-.123-1.108-.123a2.88,2.88,0,0,1-1.846-.738v-.246a6.175,6.175,0,0,1,.369-1.723l.615-.615.615-1.108c0-.123.123-.492.123-.738l.492-1.108a5.331,5.331,0,0,0,.123-.615l.985-1.477v-.246l.862-.985.492-1.108L144-15.015l1.231-1.846a5.017,5.017,0,0,1,.246-.862l.862-1.6,1.846-2.462.369-.862.246-.862v-.738l-.492-.985-.862-.862a5.075,5.075,0,0,0-2.092-.492l-.615.123-1.108.246-.985.492-2.831,1.477-.615.492-.492.246-3.815,1.477-.615.369-.369.246-1.6.615-.738.492-1.354.738-1.477,1.477-1.477.862-1.354.985-3.692,2.092-2.092.985-.985.862c-.246.246-.492.246-.738.492l-2.708,1.723h-.123l-.615.123-3.077,1.477-1.846,1.477-.738.369-.615.246-1.354.615c-.246.123-.492.492-.738.615l-5.046,2.338-.738.369-.862.246-2.092.862-2.092.738a15.934,15.934,0,0,1-2.462.738,8.4,8.4,0,0,1-2.462.492h-.492c-.123-.246,0,0,0-.369,0-.246,0-.246.123-.369L91.077-1.6l.369-.862.615-1.846.492-.862,1.231-1.723c.492-.862,1.108-1.723,1.723-2.585l1.108-1.477,2.462-3.323.246-.246.738-.615L100.8-16l.615-.615.738-.862,1.231-1.231.862-1.108,1.108-1.477.985-1.846.738-1.231.369-1.477v-2.462a6.359,6.359,0,0,0-.862-2.585l-1.108-.985L104.738-32l-.985.123-1.477.615L100.8-29.169l-.615,1.6-.369,1.6-.123,1.108a3.816,3.816,0,0,1-.246.862l-.492,1.354-.246.492-.492.738-1.354,1.969-.615.985-.615.985-.985,1.354-.862.985-1.108,1.846-.615.862-.738.985-.369.985L89.477-7.877l-.985,1.108-.862,1.354v.123l-.369.985-.615.738-.492,1.723-.492,1.6V.738a4.117,4.117,0,0,0,.862,2.831c.492.492.615.738,2.462,1.354l1.477.492,3.692.369.862-.123,1.108-.246.738-.246,2.831-.615,1.231-.615.369-.369.738-.492.369-.123.862-.123.985-1.108h.246l.615-.246,1.723-.985L107.938,0l.369-.246.862-.985.246-.123,4.8-2.708,1.6-.738,3.569-1.969.862-.738.492-.369,7.138-4.185.738-.369,2.215-1.354,2.954-1.477.862-.615.862-.246.615-.246,4.062-1.354-.492.862a5.331,5.331,0,0,1-.123.615l-.615,1.108a16.018,16.018,0,0,1-.738,1.477l-.369.492a.93.93,0,0,1-.123.492c-.369.615-.985,1.6-1.231,2.092l-1.231,2.215c-.123.246-.246.369-.246.615l-.492.862v.246c-.615,1.354-.862,2.215-1.108,2.585Zm88.246-30.4-.246-1.231-.369-1.354-.246-.492-.862-.985-1.6-1.108-1.6-.492-.738-.123-2.462-.492h-4.677l-3.323.369a14.31,14.31,0,0,0-2.215.492l-1.231.246a1.941,1.941,0,0,1-.492.123l-.615.123-.862.246-2.708.985-2.092.615-3.323.985-.985.246-1.108.492-2.708.985-.738.123-2.092,1.108-.492.369-.862.369-.123.123-1.846.985-.615.369L177.969-28.8l-1.723.985-1.477,1.108-.369.369-1.108.615a3.085,3.085,0,0,1-.492.862l-.492.369-.985,1.108-1.477,1.6-1.477,1.846c0,.123-.246.492-.246.615l-.246.369a7.279,7.279,0,0,0-1.108,2.215l-.123.985v.738l.369,1.477,1.6,1.6,1.231.862-.123-.123.492.369.862.738c.123,0,.492.123.738.123l1.108.369c.123,0,.492.123.738.123l.246.123A4.936,4.936,0,0,0,176-8.246a18.925,18.925,0,0,1,2.954.985c.492.123.369.369.738.492l1.231.492,1.846.862,1.108.492c.123,0,.246.246.492.246l3.2,1.6.615.123c.246,0,.738.246,1.108.246l1.108.369,1.354.615.985.369h-1.231l-.738.246h-4.308l-1.846.492-3.2.246a9.759,9.759,0,0,0-1.108.492c-.369,0-.369.123-.738.123h-.862l-.369-.123-.985.246h-1.723l-2.585.246L171.2.738l-2.092.246-2.585.246-.985.246-1.354.123-1.846-.123-.985.246h-1.6l-3.446,1.354-1.477.246-1.723.369-1.6.246-3.077.738-1.231.492-1.108.369L145.6,6.4l.246.862,1.108,1.231.862-.123.492-.246h.492l1.723-.246.615-.123,3.077-.738,1.354-.123,1.477-.123,1.6-.369c.738-.123,1.477-.492,2.215-.615h.985l1.723-.369h.615l2.215-.369h-.123l1.231-.123h1.969l3.2.246h2.092l1.477-.369,1.846.123,1.6-.123h1.477l4.923-.246h1.6l5.538-.369,3.2-.246,1.231-.369.246.123,1.723-.492.738-.492h.615l1.969-.862,1.108-.985.862-.985.123-.862-.123-1.6-1.231-1.846-2.708-1.354L198.277-6.4c-.492,0-1.354-.246-1.846-.246-.985-.123-1.969-.492-2.831-.615l-.615-.369c-.369,0-.738-.123-1.108-.123l-2.338-.738-.492-.369H188.8l-1.108-.492L186.338-9.6c-.369,0-.985-.246-1.354-.246l-2.708-1.108-1.108-.738a3.594,3.594,0,0,1-1.108-.246l-.862-.492-1.231-.615c-.492-.123-1.108-.492-1.6-.615l-1.231-.738-.615-.369L172.8-16.492l-.369-.492-.246-.492a3.3,3.3,0,0,1,.738-1.477l1.354-.862.492-.492,1.108-.738.985-1.354.369-.369.738-.492.492-.369.738-.615,1.723-.862.492-.492,1.723-1.231,2.831-1.477.615-.246,2.338-.985,1.477-.369.985-.369,1.723-.985L194.954-32l6.277-1.846,1.846-.615c2.585-.615,3.077-.738,3.692-.615H209.6c.492,0,.862.123,1.354.123l.738.246.615.492.369.246.246.615.123,1.108-.246.738v.985l.246.615.246.862,1.6,1.6,1.354.615c1.6.738,3.077-.615,3.692-1.477a3.5,3.5,0,0,0,1.108-2.831,1.338,1.338,0,0,1,.123-.615ZM283.2-75.569l.985-1.723,4.677-5.908,2.338-2.831,2.585-3.569.492-.738c1.231-1.6,1.969-2.462,2.338-4.308a9.948,9.948,0,0,0,.123-1.969c0-1.231-.246-3.692-3.323-2.831l-1.477,1.108-1.846,1.477L288-93.908l.123-.123-.738,1.108a29.846,29.846,0,0,0-2.462,3.569l-1.354,2.462-1.231,2.338-.985,1.723-.492.738-2.338,3.815a12.158,12.158,0,0,1-1.108,1.846l-2.462,3.938a2.08,2.08,0,0,0-.369.738c-.369.615-.738,1.108-2.585,4.677l-1.231,2.338-.369.985-1.231,2.215.123-.123-.985,1.6-1.231,2.215-1.108,2.708-1.108,2.215a7.843,7.843,0,0,0-.246.862L264-51.2c0,.123-.123.492-.123.738v.369c-.369.985-1.231,2.585-1.6,3.446l-.615,1.108-.246.985c0,.246-.246.492-.246.615l-.492.985a1.24,1.24,0,0,1-.123.369c-.738,2.585-.985,2.831-1.231,3.2a1.327,1.327,0,0,0-.369,1.108c0,.123,0,.123-.123.246l-.738,1.723-.615,1.477c0,.123-.246.492-.246.738l-.862,1.846c0,.123-.123.369-.123.246l-.369,1.108v1.108L256-28.308l1.846.123,1.477-.615.862-1.477.123-.369.738-.862.246-1.354a2.792,2.792,0,0,1,.123-.492l.246-1.354.862-2.462c0-.123.123-.492.246-.492l.492-1.354.369-1.108.492-.985.369-1.108.123-.615.246-.615c0-.123.123-.123.123-.246l.369-.738v-.123l.615-1.108s0-.369.123-.492c.246-.492.738-1.723,1.231-2.585l1.108-1.6,1.108-1.846,2.954-5.908,1.108-1.969.985-1.6.369-.615.862-1.6,1.231-1.846,1.477-2.338,1.354-1.969.492-.862v.123l1.231-2.092ZM253.046-7.877l-1.723-1.108-.738-.246-1.354.123h-.615l-.985.246-1.354,1.231a13.809,13.809,0,0,1-1.231,2.092l-.492.985A5.1,5.1,0,0,1,243.2-1.846c0,.246-.123.738-.123.985l-.615,1.6-.246,2.338c0,.246-.123.492-.123.862V5.785c.123,2.954,1.846,2.831,3.2.492a26.648,26.648,0,0,1,2.585-3.938l.615-.862.492-.369,2.585-2.585.615-1.231.369-.985v-.985c0-.123.123-.246.123-.369l.369-.369.246-1.354Z" transform="translate(292.677 104)"/></svg>