<svg xmlns="http://www.w3.org/2000/svg" width="555.879" height="294.332" viewBox="0 0 555.879 294.332"><path d="M104.467,205.883c-1.231,2.422-3.554,6.055-4.763,8.56-1.889,2.2-3.691,5.717-5.239,8.086-1.636,2.625-3.59,5.681-5.461,8.139a83.528,83.528,0,0,1-6.414,9.567,163.017,163.017,0,0,1-16.524,18.627C61.2,263.132,56.093,268.23,51,272.371c-6.12,6.543-14.475,14.134-23.489,15.965C13.475,291.285,4.9,280.114,7.3,266.857a60.971,60.971,0,0,1,7.511-19.474,66.944,66.944,0,0,1,5.181-7.356c1.98-4.069,5.057-7.586,7.954-11.02,1.123-.277,2.332-2.646,3.417-2.993l.5-.839c.522-.024,2.486-1.939,2.883-2.265l-.027-.111A153.8,153.8,0,0,1,75.6,190.248a8.98,8.98,0,0,0,2.911-1.677c1.146-.711,4.816-2.724,6.048-3.41,5.677-2.783,11.381-6.693,17.077-9.251,3.568-1.605,8.485-3.944,12.065-5.505,1.545-.641,3.619-1.564,4.032-3.383l-1.287-.869a16.421,16.421,0,0,0-3.611,1.256c-1.695.311-3.049,1.371-4.618,1.984-4.146,1.51-9.09,3.985-13.213,5.672-3.691,2.132-7.906,4.538-11.674,6.6a18,18,0,0,1-3.948,2.292c-2.944,1.687-6.58,3.978-9.518,5.7-1.523.458-2.875,1.83-4.228,2.6a29.713,29.713,0,0,0-3.666,1.985c-3.3,2.9-7.639,5.109-10.864,7.94-7.434,5.316-14.325,12.149-20.58,18.569-.823.636-3.25,2.364-3.528,3.5-1.612,2.057-5.91,5.414-6.834,7.887C13.669,239.853,7.452,247.979,4.418,257.7,1.7,264.663-2.269,273.055,1.632,280.4c.558,2.948,2.582,5.295,4.865,7.111,3.072,2.5,6.25,5.89,10.377,6.333,3.65,1.286,7.44-.288,11.054-.972,4.836-.51,10.622-3.552,14.809-5.953a7.455,7.455,0,0,0,2.071-1.23,6.038,6.038,0,0,1,1.093-1.343,5.167,5.167,0,0,0,1.651-1.482c3.749-2.2,7.5-6.03,11.088-8.471,2.073-2.739,5.2-5.571,7.645-8.446,3.061-2.525,6.083-6.358,8.9-9.118,2.734-2.347,4.712-5.381,7.113-8.194.317-.414,4.268-6.232,4.593-6.378a33.674,33.674,0,0,0,3.782-4.868c2.968-2.973,6.195-10.137,8.209-13.819,2.575-5.079,7.086-12.241,9.609-17.262,2.945-5.314,4.383-11,7.594-16.281,1.558-3.4,3.6-8.623,5.493-11.835,2.526-7.447,5.725-15.171,8.019-22.691,1.6-4.99,3.118-10.464,4.318-15.585.329-3.98,1.4-9.469,1.773-13.4.646-4.182.483-8.663,1.324-12.816a3.448,3.448,0,0,0-4.113-3.613c-1.874.51-2.453,3.8-3.081,5.286a14.348,14.348,0,0,0,.082,2.239l-.028-.111c.424,4.519.741,10.465-.429,14.971-.394,3.024-.9,7.123-2.021,10.018l-.421,1.174c-.263,4.91-1.887,10.184-2.974,14.773-.754,2.082-1.306,4.592-2.019,6.688-1.374,3.872-3.3,8.1-4.627,11.975-1.925,5.753-4.758,11.275-7.091,16.869a20.632,20.632,0,0,0-1.738,4c-1.266,2.222-3.028,5.547-4.09,7.918m57.272-111.79c-2.649-.016-5.434,1.29-8.035,1.646-.949.163-3.86.968-4.784.835A13.122,13.122,0,0,0,145.9,97.8a203.632,203.632,0,0,0-21.916,6.059l-5.15,1.284-.5.364c-1.366-.176-2.515.836-3.723,1.285a35.586,35.586,0,0,0-7.977,3.3C92.89,114.914,79.382,121.464,66.374,127.5a9.117,9.117,0,0,1-3.5,1.7c-1.344.9-3.674,1.6-5.122,2.348-.089.45-1.831,1.084-2.184,1.258-.455.705-4.515,2.677-5.292,3.1a4.178,4.178,0,0,0-2.014.979,25.789,25.789,0,0,0-2.94,1.562,7.435,7.435,0,0,0-2.995,1.818L40.2,141.283a26.324,26.324,0,0,0-6.243,4.052,32.505,32.505,0,0,0-5.123,3.3c-2.746,1.424-6,3.511-8.762,4.919-1.764.758-5.363,3.781-6.833,5.033-1.635,2.351-4.867,4.756-3.14,7.917a16.578,16.578,0,0,0,2.378,1.429c4.808-.031,6.516-3.042,9.407-6.151a50.173,50.173,0,0,1,8.6-7.494c5.515-3.456,11.366-7.457,16.545-11.379a8.955,8.955,0,0,0,3.191-1.509c2.093-.893,4.3-2.676,6.354-3.606,1.607-1.337,4.689-2.151,6.244-3.579.331-.431,2.238-.858,2.716-1.033l1.567-.867a3.69,3.69,0,0,0,1.624-1.119,5.09,5.09,0,0,1,2.827-.587l1.427-.95c.6-.295,2.535-.809,2.688-1.622,3.707-.737,8.393-3.547,11.813-5.085,1.628-1.231,4.061-1.76,5.962-2.318,10.065-6.094,22.456-9.445,33.534-13.357,3.609-.973,8.347-2.942,12.091-3.489,3.827-.83,7.946-2.018,11.782-2.819,3.142-.628,6.876-2.043,10.076-2.037,10.042-3.222,21.032-4.1,31.571-4.067,2.138.251,4.8.393,6.941.648a13.571,13.571,0,0,1,6.408.9c2.955-.8,6.877.513,9.794.65a3.8,3.8,0,0,0,2.911-.25l.281-.783-.5-1.064c-1.039-.891-5.251-1.174-6.632-1.318a5.339,5.339,0,0,0-3.078-.422c-1.046-.046-3.749-.5-4.812-.7-13.975-2.733-28.256-1.2-42.064,1.57m17.442,75.682-.447-2.267c-.385-.524-1.191-1.6-1.594-2.1l-2.266-1.457a14.363,14.363,0,0,1-1.957-.7c.369-.508,3.141-1.506,3.724-1.761a15.757,15.757,0,0,1,4.31-1.312c3.593-2.528,7.375-3.191,12.737-5.2,5.227-1.832,11.212-4.186,16.739-2.506.33,1.373-.425,3.12-.676,4.45a5.5,5.5,0,0,0,.446,2.743c.507.106,1.543-.486,1.96-.726a12.194,12.194,0,0,0,2.018-6.687c-.291-1.706-1.547-2.446-2.938-3.194-.844.157-.474-.459-1.874-.364l.111-.028-1.147-.308a1.163,1.163,0,0,1-.7.054,41.422,41.422,0,0,0-6.381.164,20.527,20.527,0,0,1-3.135.782,3.735,3.735,0,0,1-1.791.446c-2.881,1.6-6.533,1.775-9.6,2.988a13.044,13.044,0,0,0-2.519,1.341c-1.664.427-3.876,1.706-5.487,2.321-2.072-.88-4.259.049-6.213.835l-.979.363c-.086.048-.8.741-.9.7-1.337,1.122-2.633,3.088-4.592,3.049-3.7,1.593-8.012,2.025-11.979,2.512-1.65-.373-3.6.892-4.9,1.816l-.645,2.18.224,1.372a4.355,4.355,0,0,0,3.637,1.233c2.588-.625,5.413-1.811,7.95-2.457-1.924,2.033-4.115,4.418-5.993,6.489l-.336.084c-4.205,6.071-10.016,11.892-12.773,18.882-2.952,9.42,9.086,8.648,14.659,5.858,1.306-1.5,3.634-2.116,4.9-3.718,1.228-.827,3.254-1.364,3.809-2.852l.643-.279a10.09,10.09,0,0,1,1.708-2.209,45.588,45.588,0,0,0,9.354-11.132,13.594,13.594,0,0,1,1.764-2.461,15.417,15.417,0,0,0,1.124-6.942m-6.3,5.732c-.121.249-.735,1.037-.617,1.343a47.5,47.5,0,0,1-7,9.594l-.784.2c-3.458,4.538-10.293,9.232-15.874,10.26a4.905,4.905,0,0,1-1.481-.7,9.606,9.606,0,0,1,1.347-6.994A18.071,18.071,0,0,1,152.7,182.8c4.137-6.146,10.261-10.777,15.067-16.361a.572.572,0,0,0,.363.028c2.024.758,4.611.267,5.933,2.324.233,2.266.221,4.794-1.18,6.716m67.139-4.967a5.635,5.635,0,0,1,1.485-1.2c1.817-2.183,3.825-4.278,5.852-6.573a10.409,10.409,0,0,1,1.233-.783,20.936,20.936,0,0,1,1.988-2.517c1.189-1.4,3.936-3.653,5.04-5.062.612-.129,1.247-1.571,1.512-2.043l-.363-.979-1.091-.561-1.259.2c-2.007,2.785-4.87,4.46-6.777,7.16l-.225.056c-1.058,1.453-3.425,2.9-4.508,4.335-.41.363-1.749,1.388-1.9,1.9-.739.857-1.961,2-2.744,2.825a2.509,2.509,0,0,1-1.2.895c-.981,1.038-2.466,2.525-3.528,3.5a40.061,40.061,0,0,1-9.015,6.291,16.028,16.028,0,0,1-6.83,4.557,3.43,3.43,0,0,0-1.763.558,8.025,8.025,0,0,0-1.6.279,17.113,17.113,0,0,1,.144-7.053c.2-1.341.1-3.223,1.066-4.31a45.593,45.593,0,0,1,1.542-4.784c.634-1.476,2.175-3.681,2.494-5.26l.952-.95c-.277-.516.279-1.272.533-1.679l.505-1.315c.357-1.681,2.29-3.78,2.466-5.371a41.885,41.885,0,0,0,4.285-6.658,13.865,13.865,0,0,0-.362-2.407c-3.613-2.664-7.308,1.731-8.259,5.033-.212.56-.864,2.842-1.345,3.19a17.491,17.491,0,0,1-1.6,4.085c-.3,2.913-2.387,5.872-3.2,8.644a54.142,54.142,0,0,0-1.849,5.457l-.337,1.035c-.1.182-.977,1.238-.812,1.51-1.067,1.663-1.18,4.187-1.459,6.072a20.511,20.511,0,0,0,.525,7.36,7.287,7.287,0,0,0,8.479,1.1,10.673,10.673,0,0,0,3.106-.894c.9-1.028,2.659-1.74,3.807-2.377a61.937,61.937,0,0,0,4.956-4.446c.89-1.115,2.781-2.209,3.7-3.3a8.13,8.13,0,0,0,2.241-1.986c1.677-.653,2.825-2.416,4.115-3.524M236.139,113c-2.608-2.811-5.676-.337-6.886,2.431-2.055,2.325-3.135,5.69-4.036,8.617-.02.269-.749,4.386-.645,4.561l.587,1.4c3.6-.77,4.73-5.419,7.226-7.747,2.474-3.034,6.148-5.9,3.754-9.262m21.6,45.153c-1.2,3.725-2.851,7.98-4.233,11.64-2.608,5.247,2.506,9.216,5.538,3.138.956-1.646,3.081-5.317,3.98-6.939a17.761,17.761,0,0,0,2.381-3.8,9.773,9.773,0,0,1,1.4-1.538,20.17,20.17,0,0,1,3.052-3.971,17.86,17.86,0,0,1,2.465-3.469c.691-.8,1.307-2.476,2.212-3.051,1.045-1.57,3.085-2.686,4.2-4.14,4.124-2.5,2.126,7.238,2.4,9.152a9.6,9.6,0,0,0,.836,4.787c2.334,4.309,7.98,2.752,11.669,1.49,1.35-.963,3.153-1.3,4.4-2.4a13.491,13.491,0,0,0,5.375-3.243,13.051,13.051,0,0,0,4-3.5,146.837,146.837,0,0,0,19.883-18.99l-.083-1.287a3.332,3.332,0,0,0-1.286-.868l-1.232.307a108.777,108.777,0,0,1-10.388,9.844,12.234,12.234,0,0,1-4.032,3.859c-2.389,3.021-6.645,5.263-9.66,7.522a8.919,8.919,0,0,1-2.38,1.425,7.385,7.385,0,0,1-2.072,1.229,12.485,12.485,0,0,1-6.411,2.907l-1.118-.2c-.112.027,0,0-.14-.084a11.2,11.2,0,0,1-1.873-2.744c-.856-1-.492-3.51-.587-4.725a10.78,10.78,0,0,1-.363-1.932c-.094-3.273-1-6.459-4.556-7.306-4.415.428-5.932,2.382-9.1,5-1.971,1.95-4.12,4.749-5.91,6.826a4.27,4.27,0,0,1-.336,1.036c-.851,1.2-2.625,4.208-3.558,5.287.781-1.981.957-4.861,1.991-6.8A21,21,0,0,1,266.032,148c-.2-.627.852-2.68,1.093-3.246.363-4.042,7.266-20.049-1.415-18.08-5.17,1.723.312,7.724-3.033,15.5a141.623,141.623,0,0,1-4.935,15.977M413.3,128.644a4.318,4.318,0,0,0,2.713,4.2,29.006,29.006,0,0,0,8.23-2.765,22.878,22.878,0,0,0,4.478-2.068c1.728-.432,4.442-2.64,6.075-3.3a30.216,30.216,0,0,1,3.752-1.648l.868-1.286-.112-.924-.531-.7c-1.832-.022-3.593,1.094-5.318,1.562-.859.471-2.988,1.6-4,1.593-2.689,1.6-8.012,3.866-11.056,2.876-.513-1.315.323-2.489.617-3.723a9.255,9.255,0,0,1,.673-3.973l-.055-.224a8.015,8.015,0,0,0,.926-3.442,30.734,30.734,0,0,0,1.151-4.45c.43-1.044,1.493-3.189,1.29-4.365-.521-2.491-3.548-2.573-5.317-1.291a47.741,47.741,0,0,0-3.864,3.581,46.427,46.427,0,0,0-5.768,4.531,8.533,8.533,0,0,0-2.074,2.656,22.128,22.128,0,0,0-2.156,2.321c-.972.955-3.482,3.326-4.565,4.111a30.461,30.461,0,0,1-3.332,3.805c-.483-.02-2.716,2.043-3.107,2.32a13.609,13.609,0,0,1-1.933,2.266,7.6,7.6,0,0,0-2.128,1.957c-.376.308-4.431,3.551-4.648,3.775-2.851,1.72-5.547,4.275-8.818,5.172-.283-.351.167-1.731.169-2.183.116-.518.249-2.129.281-2.687a105.764,105.764,0,0,1,4.289-10.94c1.036-1.4,1.778-3.274,2.745-4.728a32.306,32.306,0,0,0,2.073-5.988c.064-2.361-.647-5.6-3.158-6.467a4.531,4.531,0,0,0-2.77,1.288,11.872,11.872,0,0,0-1.066,3.834c.005,1.687.355,3.6-.115,5.261-.786,2-1.506,4.424-2.328,6.406a32.323,32.323,0,0,0-1.513,3.945c-.564,1.178-.848,3.48-1.319,4.729a12.728,12.728,0,0,0-1.121,2.657,3.358,3.358,0,0,1-.477,1.9c-.016.811-.1,2.439-.143,3.246.583,2.4,1,3.8,4.2,3.95a14.106,14.106,0,0,0,5.655-.695c1.444-.86,3.763-1.718,4.983-2.908a3.052,3.052,0,0,1,1.875-1.538l.645-1.23c.555-.066,1.65-1.364,2.072-1.706a4.415,4.415,0,0,0,1.738-2.1c1.043-.926,4.137-4,5.236-4.753,2.767-2.48,7.012-7.41,9.912-9.845,1.171-1.4,3.543-3.112,4.7-4.5.919-.55,3.677-2.353,4.62-2.936a29.787,29.787,0,0,1-1.094,4.674c-.748,3.4-1.992,7.471-2.078,10.744m80.656-49.482c-.945-2.3-1.764-3.24-4.2-3.948-2.589-.345-6.376.393-8.872,1.142-5.487,1.662-10.238,5.4-15.229,8.078-1.541,1.331-4.033,2.479-5.431,3.969-1.844,1.829-4.1,3.8-5.963,5.65a20.956,20.956,0,0,1-2.213,2.572c-.694,2.07-2.411,4.264-3.168,6.379.028.112-.112.5-.084.616a5.455,5.455,0,0,0,.3,5.513,14.862,14.862,0,0,0,3.134,1.6l-.139-.083c.338.123,1.154.531,1.483.7.808-.059,1.891,0,2.742.029,4.476,1.023,9.337,1.359,13.851,2.613a21.519,21.519,0,0,1,5.092.4,4.3,4.3,0,0,0-1.735.671c-1.224.287-4.528,1.016-5.486,1.844l-2.855.949a3.825,3.825,0,0,1-2.687,1.144,7.9,7.9,0,0,1-2.407.838c-2.535.875-5.569,1.937-8.09,2.85a10.065,10.065,0,0,1-3.751,1.173,7.413,7.413,0,0,1-2.295.811c-3.344,2.8-8.107,3.939-11.562,6.569l-.252.9c.143.6,1.219,1.3,1.706,1.6a3.053,3.053,0,0,0,1.149-.643,15.942,15.942,0,0,0,1.959-.726,31.377,31.377,0,0,1,5.682-2.487,69.113,69.113,0,0,1,8.118-3.688l-.112.028c2.726-1.2,6.447-.91,9.014-2.485,2.6-.428,6.34-1.724,8.9-2.457,2.986-.883,7.576-2.028,10.3-3.52l.252.056a6.516,6.516,0,0,0,2.013-1.455c1.58-.379,2.882-2.192,3.5-3.608-.471-6.455-8.539-3.3-12.563-4.121a8.481,8.481,0,0,1-3.861-.227c-.131.124-1.182-.124-1.343-.141a13.79,13.79,0,0,1-6.463-.647c-1.006.234-2.228-.365-3.218-.506a9.6,9.6,0,0,1-6.268-2.719c-.164-1.013.688-1.979,1.373-2.6a7.513,7.513,0,0,1,1.176-1.483,6.307,6.307,0,0,1,1.4-2.488,11.344,11.344,0,0,1,2.268-2.35c.7-1.344,2.733-3.068,3.866-4.056a47.455,47.455,0,0,1,4.48-3.019A18.731,18.731,0,0,1,470.334,86c3.571-2.026,8.917-5.8,12.626-6.122a4,4,0,0,1,3.049.311,4.65,4.65,0,0,1,.727,1.483A3.616,3.616,0,0,0,486.9,83.3a10.322,10.322,0,0,1,.784,1.232l1.818,1.092c4.148,1.483,5.7-3.43,4.453-6.461M548,24.542c1.831-6.663,7.117-13.524,7.876-20.395-.966-8.477-6.418-2.087-7.67,2.625l.084-.139c-1.8,3.925-2.6,8.412-3.9,12.505a205.492,205.492,0,0,0-5.975,21.348l.084-.139c-1.306,3.312-1.446,7.373-2.441,10.717.423,2.176-.908,4.506-.844,6.631-.741,5.028-1.01,8.214-1.855,12.592a6.711,6.711,0,0,0,.614,3.414l1.707-.307,1.2-.893a14.135,14.135,0,0,1,.953-2.854,21.293,21.293,0,0,1,.172-5.99,25.614,25.614,0,0,1,.45-3.441,23.671,23.671,0,0,1,.2-2.546c.422-1.774.476-3.115.982-5.12.366-.881.978-2.714,1.233-3.637a139.365,139.365,0,0,1,5.609-19.474l.028.112c.357-1.216,1.121-3.782,1.489-5.009M535.925,92.957a9.784,9.784,0,0,0-2.545-.673,16.88,16.88,0,0,1-1.764.558c-2.9,1.4-2.049,5.383-3.279,7.834a7.935,7.935,0,0,1-.085,2.518c.058,2.243,1.567,10.212,3.832,4.4a20.087,20.087,0,0,1,2.186-5.54c.467-.792,2.1-3.237,2.045-4.2l.113-.979a3.42,3.42,0,0,1-.2-1.259l.252-.42a4.112,4.112,0,0,0-.56-2.24" transform="translate(0 0)"/></svg>